<svg xmlns="http://www.w3.org/2000/svg" viewBox="0 0 30.86 27.44"><defs><style>.cls-1{fill:#e5e7eb;}.cls-2{fill:#878d98;}</style></defs><g id="Layer_2" data-name="Layer 2"><g id="Layer_1-2" data-name="Layer 1"><path id="Icon_metro-users" data-name="Icon metro-users" class="cls-1" d="M20.57,20.65V19.24c4.65-2.92,5.63-14.41-1.71-14.09-7.35-.32-6.37,11.17-1.72,14.09v1.41C11.33,21.13,6.86,24,6.86,27.44h24C30.86,24,26.39,21.13,20.57,20.65Zm-11.81.66a16.31,16.31,0,0,1,5.36-2.15c-3.55-4.3-3.86-14.52,2.75-15.75C16.42,1.36,15.21,0,12,0,4.65-.32,5.63,11.17,10.29,14.09v1.42C4.47,16,0,18.84,0,22.29H7.47a12.17,12.17,0,0,1,1.29-1Z"/><path class="cls-2" d="M20.57,20.65V19.24A7.65,7.65,0,0,0,24,12.87c0-4.26,0-7.72-5.14-7.72s-5.15,3.46-5.15,7.72a7.7,7.7,0,0,0,3.43,6.37v1.41C11.33,21.13,6.86,24,6.86,27.44h24C30.86,24,26.39,21.13,20.57,20.65Z"/></g></g></svg>